HIERARCHY
ROOT Hips
{
	OFFSET 0.00 0.00 0.00
	CHANNELS 6 Xposition Yposition Zposition Xrotation Yrotation Zrotation
	JOINT Spine
	{
		OFFSET 0.00000 1.70439 2.55658
		CHANNELS 3 Xrotation Yrotation Zrotation
		JOINT Spine1
		{
			OFFSET 0.00000 0.59193 3.35699
			CHANNELS 3 Xrotation Yrotation Zrotation
			JOINT Spine2
			{
				OFFSET 0.00000 0.29710 3.39581
				CHANNELS 3 Xrotation Yrotation Zrotation
				JOINT Spine3
				{
					OFFSET 0.00000 0.00000 3.40878
					CHANNELS 3 Xrotation Yrotation Zrotation
					JOINT Neck
					{
						OFFSET 0.00000 -1.27828 8.94804
						CHANNELS 3 Xrotation Yrotation Zrotation
						JOINT Head
						{
							OFFSET 0.00000 -0.81390 4.61586
							CHANNELS 3 Xrotation Yrotation Zrotation
							End Site
							{
								OFFSET 0.00000 0.00001 5.51796
							}
						}
					}
					JOINT RightShoulder
					{
						OFFSET -1.18875 -1.98124 6.41925
						CHANNELS 3 Xrotation Yrotation Zrotation
						JOINT RightArm
						{
							OFFSET -5.90412 0.00000 0.00000
							CHANNELS 3 Xrotation Yrotation Zrotation
							JOINT RightForeArm
							{
								OFFSET -11.94674 0.00000 0.00000
								CHANNELS 3 Xrotation Yrotation Zrotation
								JOINT RightHand
								{
									OFFSET -10.17720 0.00000 0.00000
									CHANNELS 3 Xrotation Yrotation Zrotation
									JOINT RightHandEnd
									{
										OFFSET -2.84518 0.00000 0.00000
										CHANNELS 3 Xrotation Yrotation Zrotation
										End Site
										{
											OFFSET -2.84518 0.00000 0.00000
										}
									}
									JOINT RightHandThumb1
									{
										OFFSET -1.13807 -1.89679 -0.75871
										CHANNELS 3 Yrotation Xrotation Zrotation
										End Site
										{
											OFFSET -2.74823 -0.73639 0.00000
										}
									}
								}
							}
						}
					}
					JOINT LeftShoulder
					{
						OFFSET 1.18875 -1.98124 6.41925
						CHANNELS 3 Xrotation Yrotation Zrotation
						JOINT LeftArm
						{
							OFFSET 5.90412 0.00000 0.00000
							CHANNELS 3 Xrotation Yrotation Zrotation
							JOINT LeftForeArm
							{
								OFFSET 11.94674 0.00000 0.00000
								CHANNELS 3 Xrotation Yrotation Zrotation
								JOINT LeftHand
								{
									OFFSET 10.17720 0.00000 0.00000
									CHANNELS 3 Xrotation Yrotation Zrotation
									JOINT LeftHandEnd
									{
										OFFSET 2.84518 0.00000 0.00000
										CHANNELS 3 Xrotation Yrotation Zrotation
										End Site
										{
											OFFSET 2.84518 0.00000 0.00000
										}
									}
									JOINT LeftHandThumb1
									{
										OFFSET 1.13807 -1.89679 -0.75871
										CHANNELS 3 Yrotation Xrotation Zrotation
										End Site
										{
											OFFSET 2.74823 -0.73639 0.00000
										}
									}
								}
							}
						}
					}
				}
			}
		}
	}
	JOINT RightUpLeg
	{
		OFFSET -3.52662 0.00000 -1.03025
		CHANNELS 3 Xrotation Yrotation Zrotation
		JOINT RightLeg
		{
			OFFSET 0.00001 0.00000 -17.80159
			CHANNELS 3 Xrotation Yrotation Zrotation
			JOINT RightFoot
			{
				OFFSET 0.00001 0.00000 -16.85992
				CHANNELS 3 Xrotation Yrotation Zrotation
				JOINT RightToeBase
				{
					OFFSET 0.00000 -5.42953 -1.97619
					CHANNELS 3 Xrotation Yrotation Zrotation
					End Site
					{
						OFFSET 0.00000 -2.85300 -0.00000
					}
				}
			}
		}
	}
	JOINT LeftUpLeg
	{
		OFFSET 3.52662 0.00000 -1.03025
		CHANNELS 3 Xrotation Yrotation Zrotation
		JOINT LeftLeg
		{
			OFFSET 0.00001 0.00000 -17.80159
			CHANNELS 3 Xrotation Yrotation Zrotation
			JOINT LeftFoot
			{
				OFFSET 0.00001 0.00000 -16.85992
				CHANNELS 3 Xrotation Yrotation Zrotation
				JOINT LeftToeBase
				{
					OFFSET 0.00000 -5.42953 -1.97619
					CHANNELS 3 Xrotation Yrotation Zrotation
					End Site
					{
						OFFSET 0.00000 -2.85300 -0.00000
					}
				}
			}
		}
	}
}
MOTION
Frames: 9
Frame Time:	0.0333333
 -1.0456 -3.8279 37.5426 1.1005 0.2365 -177.5379 1.0896 -0.3263 -0.5627 0.4398 0.5953 -0.0665 2.4508 -2.2022 -2.0587 0.3816 0.1401 0.4003 2.3986 0.1677 -2.1391 -0.2520 -0.2589 0.3319 16.4373 -25.2004 1.8744 14.9123 -39.9940 23.9763 0.0000 0.0000 29.6411 0.0851 29.9225 1.0326 -0.0000 0.0000 -0.0000 -0.0000 -0.0000 0.0000 12.8283 13.5011 -5.2710 42.0183 39.1812 -43.1429 -0.0000 -0.0000 -31.3863 -4.3817 -17.7507 -2.8234 -0.0000 0.0000 -0.0000 -0.0000 0.0000 0.0000 -4.3660 6.4108 -23.5654 23.9072 0.0000 0.0000 -18.5485 -4.1130 -7.8054 0.4202 0.0000 0.0000 -7.0921 -5.3844 5.7349 27.0397 0.0000 0.0000 -15.8108 7.0883 5.7499 -3.4023 0.0000 -0.0000
 -1.0502 -3.9179 37.1483 1.2296 0.2767 -177.5118 1.7857 0.1210 -0.4828 0.9375 0.6733 -0.0828 1.9077 -2.3707 -2.2368 0.0978 0.0694 0.4790 1.9479 0.0419 -2.3271 -0.3000 -0.2077 0.5814 14.4803 -25.0435 1.3908 6.8232 -39.3472 16.3917 0.0000 0.0000 30.9971 -0.6326 31.9838 2.9174 -0.0000 -0.0000 0.0000 -0.0000 -0.0000 -0.0000 12.8677 12.1839 -5.8727 39.3754 40.2598 -40.9870 -0.0000 -0.0000 -32.6172 -3.9578 -15.7980 -3.7312 -0.0000 -0.0000 -0.0000 0.0000 -0.0000 0.0000 -7.9461 7.0169 -19.8358 31.0357 0.0000 0.0000 -21.5433 -3.7845 -11.6131 0.0095 0.0000 0.0000 -10.4059 -5.6267 5.1774 33.7812 0.0000 0.0000 -18.1423 7.2139 6.1732 -3.9067 0.0000 -0.0000
 -1.0639 -4.0777 36.5251 1.8679 0.3553 -177.5028 3.1035 0.7001 -0.4931 1.5965 0.7745 -0.1061 1.5880 -2.4836 -2.4921 -0.1446 -0.0380 0.5176 0.8841 -0.0095 -2.2915 -0.8963 0.0229 1.1892 11.2625 -24.0252 1.2341 -6.8009 -36.4911 4.2018 0.0000 0.0000 34.3968 -4.3082 33.9803 3.5555 0.0000 -0.0000 0.0000 -0.0000 -0.0000 0.0000 12.8012 10.9553 -6.9063 35.2785 40.7892 -36.6138 -0.0000 -0.0000 -35.5897 -2.9028 -14.9653 -3.9571 -0.0000 -0.0000 0.0000 -0.0000 0.0000 -0.0000 -11.7457 7.4928 -16.6443 39.3115 0.0000 0.0000 -24.3103 -3.0428 -15.0441 -1.2948 0.0000 -0.0000 -14.2118 -5.9097 3.6903 42.2608 0.0000 0.0000 -19.7688 8.4791 6.1148 -7.1634 0.0000 -0.0000
 -1.0685 -4.2989 35.7277 2.2083 -0.0108 -177.8082 4.4063 0.8999 -0.5205 2.0370 0.8168 -0.1235 1.2777 -2.2469 -2.6972 -0.2565 -0.1062 0.4355 -0.3869 -0.2897 -1.9112 -1.8359 0.0688 2.1641 7.9665 -21.1731 1.5806 -20.7435 -29.7488 -5.7735 0.0000 0.0000 37.3875 -12.1750 37.2275 1.9672 0.0000 0.0000 -0.0000 0.0000 -0.0000 0.0000 12.1615 10.3711 -7.7924 30.2508 39.9715 -29.7749 -0.0000 -0.0000 -40.2831 -0.9041 -15.5032 -3.8825 -0.0000 -0.0000 0.0000 0.0000 0.0000 -0.0000 -15.5820 7.3421 -14.6038 46.6384 0.0000 0.0000 -26.8650 -2.3798 -17.3860 -2.2100 0.0000 -0.0000 -18.2037 -7.0345 2.9796 50.2181 0.0000 0.0000 -20.8908 10.5550 4.4019 -10.7387 0.0000 -0.0000
 -1.0967 -4.4284 35.1117 2.0021 -0.4133 -178.3870 5.0447 0.9314 -0.5465 2.1004 0.7507 -0.1376 0.7339 -1.4633 -2.7504 -0.2896 -0.0550 0.1828 -0.9294 -0.7922 -1.3892 -2.3026 -0.4955 3.0283 5.4753 -16.6299 2.1140 -31.2708 -20.7748 -8.8612 0.0000 0.0000 35.5822 -21.0596 40.4884 -0.5305 -0.0000 0.0000 -0.0000 0.0000 -0.0000 0.0000 11.0178 10.7055 -7.6390 25.4050 37.8993 -22.4264 -0.0000 -0.0000 -44.5481 1.8415 -16.5187 -4.1083 0.0000 -0.0000 0.0000 -0.0000 -0.0000 0.0000 -18.0842 7.3357 -14.0842 50.6923 0.0000 0.0000 -29.6534 -1.9918 -17.9121 -0.9116 0.0000 -0.0000 -20.2911 -8.1189 3.2950 53.9701 0.0000 0.0000 -23.5298 11.3971 2.9322 -10.4054 0.0000 -0.0000
 -1.2177 -4.3205 35.2468 1.8056 -0.1494 -179.1162 4.9303 1.0050 -0.6084 1.9749 0.6294 -0.1326 0.0452 -0.2022 -2.5204 -0.3442 0.1053 -0.2273 -0.4233 -0.8637 -0.7207 -1.8813 -1.5457 3.1776 3.0958 -11.0448 2.8520 -37.7318 -12.2310 -6.9579 0.0000 0.0000 29.5066 -28.4130 40.0105 -0.3298 -0.0000 0.0000 -0.0000 0.0000 -0.0000 -0.0000 10.0321 11.9211 -6.3484 21.7594 35.5584 -17.0608 -0.0000 -0.0000 -46.1057 3.2458 -17.6101 -4.4695 0.0000 0.0000 -0.0000 -0.0000 0.0000 -0.0000 -17.2136 8.2456 -14.9715 49.1486 0.0000 0.0000 -30.0754 -2.2931 -15.9798 0.1895 0.0000 0.0000 -18.4175 -7.4149 3.6626 51.0637 0.0000 0.0000 -25.5317 10.2937 3.8310 -8.7532 0.0000 -0.0000
 -1.4522 -4.0195 36.4672 1.8706 0.6272 179.4742 4.3969 0.7365 -0.5978 1.7844 0.3062 -0.1242 -0.7122 1.4100 -1.5139 -0.4839 0.4007 -0.6814 0.6218 -0.2878 0.1966 -1.0168 -2.3998 2.7459 -0.0732 -4.7845 4.3245 -41.0654 -5.7202 -3.9142 0.0000 0.0000 24.7846 -33.8879 38.3875 1.8730 0.0000 0.0000 0.0000 0.0000 -0.0000 -0.0000 9.7795 13.7693 -4.7219 19.5921 34.1740 -14.1176 -0.0000 -0.0000 -44.9258 1.5923 -19.1312 -4.2258 -0.0000 0.0000 -0.0000 -0.0000 -0.0000 0.0000 -12.9115 9.4519 -17.4392 40.9436 0.0000 0.0000 -22.7589 -4.2852 -11.4905 -3.4730 0.0000 -0.0000 -13.2997 -5.3274 3.8545 41.9261 0.0000 0.0000 -19.3258 9.4596 5.8243 -12.6399 0.0000 -0.0000
 -1.7557 -3.6617 38.5612 2.0789 1.5475 176.8821 3.7509 -0.0044 -0.5315 1.6309 -0.3079 -0.1122 -1.5667 3.0908 0.5333 -0.6461 0.8540 -0.9834 1.6395 0.4535 1.2658 -0.4417 -2.5300 2.3343 -3.8334 1.7816 7.2019 -43.5118 -1.1768 -0.9175 0.0000 0.0000 23.1508 -37.0587 36.5456 3.1264 -0.0000 0.0000 0.0000 0.0000 -0.0000 -0.0000 10.0256 16.0070 -3.2276 18.9612 33.8154 -12.7633 -0.0000 -0.0000 -42.5985 -2.1758 -20.5413 -3.7542 -0.0000 -0.0000 -0.0000 -0.0000 0.0000 0.0000 -6.7389 10.4562 -24.1171 27.1156 0.0000 0.0000 -4.7226 -7.1020 -3.3709 -10.8398 0.0000 -0.0000 -7.1116 -3.6687 6.0866 28.8551 0.0000 0.0000 -1.4638 12.3050 5.0490 -20.7295 0.0000 -0.0000
 -2.0320 -3.4196 40.7864 1.4288 2.8341 173.5502 2.5806 -0.2366 -0.3571 1.5030 -1.2595 -0.0892 -2.8063 4.2088 2.9596 -0.8242 1.2372 -1.1206 2.5075 1.5326 2.3991 0.0790 -2.4793 2.0752 -6.9551 9.6378 12.1717 -48.2969 1.5122 1.7778 0.0000 0.0000 22.8230 -37.7488 34.2923 2.8371 -0.0000 0.0000 -0.0000 -0.0000 -0.0000 -0.0000 10.4431 17.4691 -1.5832 20.0083 34.5203 -13.0265 -0.0000 -0.0000 -40.5116 -4.9045 -20.4399 -4.1408 -0.0000 0.0000 -0.0000 0.0000 -0.0000 -0.0000 -2.4158 11.0884 -39.1237 13.0218 0.0000 0.0000 18.3186 -5.4704 8.8239 -13.6518 0.0000 -0.0000 -2.9153 -2.8521 13.1813 16.2061 0.0000 0.0000 22.1013 15.4560 -2.0814 -21.5723 0.0000 -0.0000
